<mxfile host="app.diagrams.net" agent="Mozilla/5.0 (Windows NT 10.0; Win64; x64) AppleWebKit/537.36 (KHTML, like Gecko) Chrome/127.0.0.0 Safari/537.36 OPR/113.0.0.0" version="24.7.17">
  <diagram name="Page-1" id="0k8xIw7TpMh4qqgfpXcG">
    <mxGraphModel grid="1" page="1" gridSize="10" guides="1" tooltips="1" connect="1" arrows="1" fold="1" pageScale="1" pageWidth="827" pageHeight="1169" math="0" shadow="0">
      <root>
        <mxCell id="0" />
        <mxCell id="1" parent="0" />
        <mxCell id="NXc3dOM5y7SeG1pe1I8C-40" value="" style="rounded=0;whiteSpace=wrap;html=1;strokeColor=none;" vertex="1" parent="1">
          <mxGeometry x="120" y="30" width="1860" height="1330" as="geometry" />
        </mxCell>
        <mxCell id="SM1oqchBrChm5BAiPCP6-1" value="Statistician" style="shape=umlActor;verticalLabelPosition=bottom;verticalAlign=top;html=1;outlineConnect=0;" vertex="1" parent="1">
          <mxGeometry x="160" y="120" width="30" height="60" as="geometry" />
        </mxCell>
        <mxCell id="SM1oqchBrChm5BAiPCP6-2" value="\" style="rounded=1;whiteSpace=wrap;html=1;movable=1;resizable=1;rotatable=1;deletable=1;editable=1;locked=0;connectable=1;" vertex="1" parent="1">
          <mxGeometry x="250" y="70" width="1700" height="1260" as="geometry" />
        </mxCell>
        <mxCell id="SM1oqchBrChm5BAiPCP6-3" value="&lt;font style=&quot;font-size: 23px;&quot;&gt;World Database Management&lt;/font&gt;" style="text;html=1;align=center;verticalAlign=middle;whiteSpace=wrap;rounded=0;" vertex="1" parent="1">
          <mxGeometry x="893.75" y="90" width="412.5" height="30" as="geometry" />
        </mxCell>
        <mxCell id="SM1oqchBrChm5BAiPCP6-4" value="Produce list of Top N Populated Countries" style="ellipse;whiteSpace=wrap;html=1;" vertex="1" parent="1">
          <mxGeometry x="710" y="570" width="180" height="80" as="geometry" />
        </mxCell>
        <mxCell id="SM1oqchBrChm5BAiPCP6-5" value="Produce list of countries from most to least populated in continent" style="ellipse;whiteSpace=wrap;html=1;" vertex="1" parent="1">
          <mxGeometry x="710" y="660" width="180" height="80" as="geometry" />
        </mxCell>
        <mxCell id="SM1oqchBrChm5BAiPCP6-6" value="Produce list of most to least populated countries" style="ellipse;whiteSpace=wrap;html=1;" vertex="1" parent="1">
          <mxGeometry x="710" y="390" width="180" height="80" as="geometry" />
        </mxCell>
        <mxCell id="NXc3dOM5y7SeG1pe1I8C-3" style="edgeStyle=orthogonalEdgeStyle;rounded=0;orthogonalLoop=1;jettySize=auto;html=1;exitX=0;exitY=0.5;exitDx=0;exitDy=0;endArrow=none;endFill=0;" edge="1" parent="1" source="SM1oqchBrChm5BAiPCP6-7">
          <mxGeometry relative="1" as="geometry">
            <mxPoint x="650" y="789.75" as="targetPoint" />
          </mxGeometry>
        </mxCell>
        <mxCell id="SM1oqchBrChm5BAiPCP6-7" value="Produce list of countries from most to least populated in region" style="ellipse;whiteSpace=wrap;html=1;" vertex="1" parent="1">
          <mxGeometry x="710" y="750" width="180" height="80" as="geometry" />
        </mxCell>
        <mxCell id="SM1oqchBrChm5BAiPCP6-8" value="Produce list of cities from most to least populated" style="ellipse;whiteSpace=wrap;html=1;" vertex="1" parent="1">
          <mxGeometry x="1050" y="750" width="180" height="80" as="geometry" />
        </mxCell>
        <mxCell id="SM1oqchBrChm5BAiPCP6-9" value="Produce list of most to least populated cities in a continent" style="ellipse;whiteSpace=wrap;html=1;" vertex="1" parent="1">
          <mxGeometry x="1050" y="660" width="180" height="80" as="geometry" />
        </mxCell>
        <mxCell id="SM1oqchBrChm5BAiPCP6-10" value="Produce list of most to least populated cities in a region" style="ellipse;whiteSpace=wrap;html=1;" vertex="1" parent="1">
          <mxGeometry x="1050" y="1030" width="180" height="80" as="geometry" />
        </mxCell>
        <mxCell id="SM1oqchBrChm5BAiPCP6-11" value="Produce Capital City Report&amp;nbsp;" style="ellipse;whiteSpace=wrap;html=1;" vertex="1" parent="1">
          <mxGeometry x="1390" y="660" width="180" height="80" as="geometry" />
        </mxCell>
        <mxCell id="SM1oqchBrChm5BAiPCP6-12" value="Produce Country Report" style="ellipse;whiteSpace=wrap;html=1;" vertex="1" parent="1">
          <mxGeometry x="710" y="300" width="180" height="80" as="geometry" />
        </mxCell>
        <mxCell id="SM1oqchBrChm5BAiPCP6-13" value="Produce City Report" style="ellipse;whiteSpace=wrap;html=1;" vertex="1" parent="1">
          <mxGeometry x="1050" y="300" width="180" height="80" as="geometry" />
        </mxCell>
        <mxCell id="SM1oqchBrChm5BAiPCP6-53" style="edgeStyle=orthogonalEdgeStyle;rounded=0;orthogonalLoop=1;jettySize=auto;html=1;exitX=0;exitY=0.5;exitDx=0;exitDy=0;endArrow=none;endFill=0;" edge="1" parent="1" source="SM1oqchBrChm5BAiPCP6-14">
          <mxGeometry relative="1" as="geometry">
            <mxPoint x="300.0000000000002" y="980" as="targetPoint" />
          </mxGeometry>
        </mxCell>
        <mxCell id="SM1oqchBrChm5BAiPCP6-14" value="Produce Population Report" style="ellipse;whiteSpace=wrap;html=1;" vertex="1" parent="1">
          <mxGeometry x="355" y="1040" width="180" height="80" as="geometry" />
        </mxCell>
        <mxCell id="SM1oqchBrChm5BAiPCP6-15" value="Produce Language Report" style="ellipse;whiteSpace=wrap;html=1;" vertex="1" parent="1">
          <mxGeometry x="1710" y="180" width="180" height="80" as="geometry" />
        </mxCell>
        <mxCell id="SM1oqchBrChm5BAiPCP6-16" value="Produce list of Top N populated countries in a continent" style="ellipse;whiteSpace=wrap;html=1;" vertex="1" parent="1">
          <mxGeometry x="710" y="480" width="180" height="80" as="geometry" />
        </mxCell>
        <mxCell id="NXc3dOM5y7SeG1pe1I8C-2" style="edgeStyle=orthogonalEdgeStyle;rounded=0;orthogonalLoop=1;jettySize=auto;html=1;exitX=0;exitY=0.5;exitDx=0;exitDy=0;entryX=0;entryY=0.5;entryDx=0;entryDy=0;" edge="1" parent="1" source="SM1oqchBrChm5BAiPCP6-17" target="SM1oqchBrChm5BAiPCP6-49">
          <mxGeometry relative="1" as="geometry">
            <Array as="points">
              <mxPoint x="650" y="885" />
              <mxPoint x="650" y="220" />
            </Array>
          </mxGeometry>
        </mxCell>
        <mxCell id="SM1oqchBrChm5BAiPCP6-17" value="Produce list of top N populated countries in region" style="ellipse;whiteSpace=wrap;html=1;" vertex="1" parent="1">
          <mxGeometry x="710" y="845" width="180" height="80" as="geometry" />
        </mxCell>
        <mxCell id="NXc3dOM5y7SeG1pe1I8C-9" style="edgeStyle=orthogonalEdgeStyle;rounded=0;orthogonalLoop=1;jettySize=auto;html=1;exitX=0;exitY=0.5;exitDx=0;exitDy=0;entryX=0;entryY=0.5;entryDx=0;entryDy=0;" edge="1" parent="1" source="SM1oqchBrChm5BAiPCP6-18" target="SM1oqchBrChm5BAiPCP6-50">
          <mxGeometry relative="1" as="geometry">
            <Array as="points">
              <mxPoint x="990" y="1250" />
              <mxPoint x="990" y="220" />
            </Array>
          </mxGeometry>
        </mxCell>
        <mxCell id="SM1oqchBrChm5BAiPCP6-18" value="Produce list of most to least populated cities in country" style="ellipse;whiteSpace=wrap;html=1;" vertex="1" parent="1">
          <mxGeometry x="1050" y="1210" width="180" height="80" as="geometry" />
        </mxCell>
        <mxCell id="NXc3dOM5y7SeG1pe1I8C-10" style="edgeStyle=orthogonalEdgeStyle;rounded=0;orthogonalLoop=1;jettySize=auto;html=1;exitX=0;exitY=0.5;exitDx=0;exitDy=0;endArrow=none;endFill=0;" edge="1" parent="1" source="SM1oqchBrChm5BAiPCP6-19">
          <mxGeometry relative="1" as="geometry">
            <mxPoint x="990" y="1159.6315789473686" as="targetPoint" />
          </mxGeometry>
        </mxCell>
        <mxCell id="SM1oqchBrChm5BAiPCP6-19" value="Produce list of most to least populated cities in district" style="ellipse;whiteSpace=wrap;html=1;" vertex="1" parent="1">
          <mxGeometry x="1050" y="1120" width="180" height="80" as="geometry" />
        </mxCell>
        <mxCell id="SM1oqchBrChm5BAiPCP6-20" value="Produce list of top N populated cities" style="ellipse;whiteSpace=wrap;html=1;" vertex="1" parent="1">
          <mxGeometry x="1050" y="570" width="180" height="80" as="geometry" />
        </mxCell>
        <mxCell id="SM1oqchBrChm5BAiPCP6-21" value="Produce list of top N populated cities in continent" style="ellipse;whiteSpace=wrap;html=1;" vertex="1" parent="1">
          <mxGeometry x="1050" y="845" width="180" height="80" as="geometry" />
        </mxCell>
        <mxCell id="SM1oqchBrChm5BAiPCP6-22" value="Produce list of top N populated cities in region" style="ellipse;whiteSpace=wrap;html=1;" vertex="1" parent="1">
          <mxGeometry x="1050" y="940" width="180" height="80" as="geometry" />
        </mxCell>
        <mxCell id="SM1oqchBrChm5BAiPCP6-23" value="Produce list of top N populated cities in country" style="ellipse;whiteSpace=wrap;html=1;" vertex="1" parent="1">
          <mxGeometry x="1050" y="480" width="180" height="80" as="geometry" />
        </mxCell>
        <mxCell id="SM1oqchBrChm5BAiPCP6-24" value="Produce list of top N populated cities in district" style="ellipse;whiteSpace=wrap;html=1;" vertex="1" parent="1">
          <mxGeometry x="1050" y="390" width="180" height="80" as="geometry" />
        </mxCell>
        <mxCell id="SM1oqchBrChm5BAiPCP6-25" value="Produce list of capital cities from most to least populated" style="ellipse;whiteSpace=wrap;html=1;" vertex="1" parent="1">
          <mxGeometry x="1390" y="480" width="180" height="80" as="geometry" />
        </mxCell>
        <mxCell id="SM1oqchBrChm5BAiPCP6-26" value="Produce list of capital cities from most to least populated" style="ellipse;whiteSpace=wrap;html=1;" vertex="1" parent="1">
          <mxGeometry x="1390" y="750" width="180" height="80" as="geometry" />
        </mxCell>
        <mxCell id="SM1oqchBrChm5BAiPCP6-27" value="Produce list of capital cities from most to least populated in continent" style="ellipse;whiteSpace=wrap;html=1;" vertex="1" parent="1">
          <mxGeometry x="1390" y="390" width="180" height="80" as="geometry" />
        </mxCell>
        <mxCell id="SM1oqchBrChm5BAiPCP6-28" value="Produce list of capital cities from most to least populated in region" style="ellipse;whiteSpace=wrap;html=1;" vertex="1" parent="1">
          <mxGeometry x="1390" y="300" width="180" height="80" as="geometry" />
        </mxCell>
        <mxCell id="NXc3dOM5y7SeG1pe1I8C-22" style="edgeStyle=orthogonalEdgeStyle;rounded=0;orthogonalLoop=1;jettySize=auto;html=1;exitX=0;exitY=0.5;exitDx=0;exitDy=0;entryX=0;entryY=0.5;entryDx=0;entryDy=0;" edge="1" parent="1" source="SM1oqchBrChm5BAiPCP6-29" target="SM1oqchBrChm5BAiPCP6-51">
          <mxGeometry relative="1" as="geometry">
            <Array as="points">
              <mxPoint x="1330" y="980" />
              <mxPoint x="1330" y="220" />
            </Array>
          </mxGeometry>
        </mxCell>
        <mxCell id="SM1oqchBrChm5BAiPCP6-29" value="Produce list of top N populated capital cities" style="ellipse;whiteSpace=wrap;html=1;" vertex="1" parent="1">
          <mxGeometry x="1390" y="940" width="180" height="80" as="geometry" />
        </mxCell>
        <mxCell id="SM1oqchBrChm5BAiPCP6-30" value="Produce list of top N populated capital cities in continent" style="ellipse;whiteSpace=wrap;html=1;" vertex="1" parent="1">
          <mxGeometry x="1390" y="570" width="180" height="80" as="geometry" />
        </mxCell>
        <mxCell id="NXc3dOM5y7SeG1pe1I8C-23" style="edgeStyle=orthogonalEdgeStyle;rounded=0;orthogonalLoop=1;jettySize=auto;html=1;exitX=0;exitY=0.5;exitDx=0;exitDy=0;endArrow=none;endFill=0;" edge="1" parent="1" source="SM1oqchBrChm5BAiPCP6-31">
          <mxGeometry relative="1" as="geometry">
            <mxPoint x="1330" y="884.8947368421054" as="targetPoint" />
          </mxGeometry>
        </mxCell>
        <mxCell id="SM1oqchBrChm5BAiPCP6-31" value="Produce list of top N populated capital cities in region" style="ellipse;whiteSpace=wrap;html=1;" vertex="1" parent="1">
          <mxGeometry x="1390" y="845" width="180" height="80" as="geometry" />
        </mxCell>
        <mxCell id="SM1oqchBrChm5BAiPCP6-32" value="Produce list showing population and pop%livingInCities in each continent" style="ellipse;whiteSpace=wrap;html=1;" vertex="1" parent="1">
          <mxGeometry x="335" y="940" width="220" height="80" as="geometry" />
        </mxCell>
        <mxCell id="SM1oqchBrChm5BAiPCP6-33" style="edgeStyle=orthogonalEdgeStyle;rounded=0;orthogonalLoop=1;jettySize=auto;html=1;endArrow=none;endFill=0;" edge="1" parent="1" source="SM1oqchBrChm5BAiPCP6-34">
          <mxGeometry relative="1" as="geometry">
            <mxPoint x="300" y="885" as="targetPoint" />
          </mxGeometry>
        </mxCell>
        <mxCell id="SM1oqchBrChm5BAiPCP6-34" value="Produce list showing population and pop%livingInCities in each region" style="ellipse;whiteSpace=wrap;html=1;" vertex="1" parent="1">
          <mxGeometry x="335" y="845" width="220" height="80" as="geometry" />
        </mxCell>
        <mxCell id="SM1oqchBrChm5BAiPCP6-35" style="edgeStyle=orthogonalEdgeStyle;rounded=0;orthogonalLoop=1;jettySize=auto;html=1;exitX=0;exitY=0.5;exitDx=0;exitDy=0;endArrow=none;endFill=0;" edge="1" parent="1" source="SM1oqchBrChm5BAiPCP6-36">
          <mxGeometry relative="1" as="geometry">
            <mxPoint x="300.0000000000002" y="790.3333333333335" as="targetPoint" />
          </mxGeometry>
        </mxCell>
        <mxCell id="SM1oqchBrChm5BAiPCP6-36" value="Produce list showing population and pop%livingInCities in each country" style="ellipse;whiteSpace=wrap;html=1;" vertex="1" parent="1">
          <mxGeometry x="335" y="750" width="220" height="80" as="geometry" />
        </mxCell>
        <mxCell id="SM1oqchBrChm5BAiPCP6-37" value="Display total world population" style="ellipse;whiteSpace=wrap;html=1;" vertex="1" parent="1">
          <mxGeometry x="335" y="300" width="220" height="80" as="geometry" />
        </mxCell>
        <mxCell id="SM1oqchBrChm5BAiPCP6-38" style="edgeStyle=orthogonalEdgeStyle;rounded=0;orthogonalLoop=1;jettySize=auto;html=1;exitX=0;exitY=0.5;exitDx=0;exitDy=0;endArrow=none;endFill=0;" edge="1" parent="1" source="SM1oqchBrChm5BAiPCP6-39">
          <mxGeometry relative="1" as="geometry">
            <mxPoint x="300.0000000000002" y="700.3333333333335" as="targetPoint" />
          </mxGeometry>
        </mxCell>
        <mxCell id="SM1oqchBrChm5BAiPCP6-39" value="Display population of continent" style="ellipse;whiteSpace=wrap;html=1;" vertex="1" parent="1">
          <mxGeometry x="335" y="660" width="220" height="80" as="geometry" />
        </mxCell>
        <mxCell id="SM1oqchBrChm5BAiPCP6-40" value="Display population of region" style="ellipse;whiteSpace=wrap;html=1;" vertex="1" parent="1">
          <mxGeometry x="335" y="570" width="220" height="80" as="geometry" />
        </mxCell>
        <mxCell id="SM1oqchBrChm5BAiPCP6-41" value="Display population of country" style="ellipse;whiteSpace=wrap;html=1;" vertex="1" parent="1">
          <mxGeometry x="335" y="480" width="220" height="80" as="geometry" />
        </mxCell>
        <mxCell id="SM1oqchBrChm5BAiPCP6-42" value="Display population of city" style="ellipse;whiteSpace=wrap;html=1;" vertex="1" parent="1">
          <mxGeometry x="335" y="390" width="220" height="80" as="geometry" />
        </mxCell>
        <mxCell id="SM1oqchBrChm5BAiPCP6-43" value="&lt;font style=&quot;font-size: 16px;&quot;&gt;Population lists&lt;/font&gt;" style="ellipse;whiteSpace=wrap;html=1;" vertex="1" parent="1">
          <mxGeometry x="335" y="180" width="220" height="80" as="geometry" />
        </mxCell>
        <mxCell id="SM1oqchBrChm5BAiPCP6-44" value="" style="endArrow=classic;html=1;rounded=0;entryX=0;entryY=0.5;entryDx=0;entryDy=0;exitX=0;exitY=0.5;exitDx=0;exitDy=0;" edge="1" parent="1" source="SM1oqchBrChm5BAiPCP6-32" target="SM1oqchBrChm5BAiPCP6-43">
          <mxGeometry width="50" height="50" relative="1" as="geometry">
            <mxPoint x="335" y="340" as="sourcePoint" />
            <mxPoint x="350" y="280" as="targetPoint" />
            <Array as="points">
              <mxPoint x="300" y="980" />
              <mxPoint x="300" y="220" />
            </Array>
          </mxGeometry>
        </mxCell>
        <mxCell id="SM1oqchBrChm5BAiPCP6-45" value="" style="endArrow=none;html=1;rounded=0;entryX=0;entryY=0.5;entryDx=0;entryDy=0;" edge="1" parent="1" target="SM1oqchBrChm5BAiPCP6-37">
          <mxGeometry width="50" height="50" relative="1" as="geometry">
            <mxPoint x="300" y="340" as="sourcePoint" />
            <mxPoint x="400" y="260" as="targetPoint" />
          </mxGeometry>
        </mxCell>
        <mxCell id="SM1oqchBrChm5BAiPCP6-46" value="" style="endArrow=none;html=1;rounded=0;entryX=0;entryY=0.5;entryDx=0;entryDy=0;" edge="1" parent="1">
          <mxGeometry width="50" height="50" relative="1" as="geometry">
            <mxPoint x="300" y="430" as="sourcePoint" />
            <mxPoint x="335" y="430" as="targetPoint" />
          </mxGeometry>
        </mxCell>
        <mxCell id="SM1oqchBrChm5BAiPCP6-47" value="" style="endArrow=none;html=1;rounded=0;entryX=0;entryY=0.5;entryDx=0;entryDy=0;" edge="1" parent="1">
          <mxGeometry width="50" height="50" relative="1" as="geometry">
            <mxPoint x="300" y="520" as="sourcePoint" />
            <mxPoint x="335" y="520" as="targetPoint" />
          </mxGeometry>
        </mxCell>
        <mxCell id="SM1oqchBrChm5BAiPCP6-48" value="" style="endArrow=none;html=1;rounded=0;entryX=0;entryY=0.5;entryDx=0;entryDy=0;" edge="1" parent="1">
          <mxGeometry width="50" height="50" relative="1" as="geometry">
            <mxPoint x="300" y="610" as="sourcePoint" />
            <mxPoint x="335" y="610" as="targetPoint" />
          </mxGeometry>
        </mxCell>
        <mxCell id="SM1oqchBrChm5BAiPCP6-49" value="&lt;font style=&quot;font-size: 16px;&quot;&gt;Country lists&lt;/font&gt;" style="ellipse;whiteSpace=wrap;html=1;" vertex="1" parent="1">
          <mxGeometry x="690" y="180" width="220" height="80" as="geometry" />
        </mxCell>
        <mxCell id="SM1oqchBrChm5BAiPCP6-50" value="&lt;font style=&quot;font-size: 16px;&quot;&gt;City Lists&lt;/font&gt;" style="ellipse;whiteSpace=wrap;html=1;" vertex="1" parent="1">
          <mxGeometry x="1030" y="180" width="220" height="80" as="geometry" />
        </mxCell>
        <mxCell id="SM1oqchBrChm5BAiPCP6-51" value="&lt;font style=&quot;font-size: 16px;&quot;&gt;Capital City lists&lt;/font&gt;" style="ellipse;whiteSpace=wrap;html=1;" vertex="1" parent="1">
          <mxGeometry x="1370" y="180" width="220" height="80" as="geometry" />
        </mxCell>
        <mxCell id="NXc3dOM5y7SeG1pe1I8C-4" style="edgeStyle=orthogonalEdgeStyle;rounded=0;orthogonalLoop=1;jettySize=auto;html=1;exitX=0;exitY=0.5;exitDx=0;exitDy=0;endArrow=none;endFill=0;" edge="1" parent="1">
          <mxGeometry relative="1" as="geometry">
            <mxPoint x="650" y="699.75" as="targetPoint" />
            <mxPoint x="710" y="700" as="sourcePoint" />
          </mxGeometry>
        </mxCell>
        <mxCell id="NXc3dOM5y7SeG1pe1I8C-5" style="edgeStyle=orthogonalEdgeStyle;rounded=0;orthogonalLoop=1;jettySize=auto;html=1;exitX=0;exitY=0.5;exitDx=0;exitDy=0;endArrow=none;endFill=0;" edge="1" parent="1">
          <mxGeometry relative="1" as="geometry">
            <mxPoint x="650" y="609.75" as="targetPoint" />
            <mxPoint x="710" y="610" as="sourcePoint" />
          </mxGeometry>
        </mxCell>
        <mxCell id="NXc3dOM5y7SeG1pe1I8C-6" style="edgeStyle=orthogonalEdgeStyle;rounded=0;orthogonalLoop=1;jettySize=auto;html=1;exitX=0;exitY=0.5;exitDx=0;exitDy=0;endArrow=none;endFill=0;" edge="1" parent="1">
          <mxGeometry relative="1" as="geometry">
            <mxPoint x="650" y="519.75" as="targetPoint" />
            <mxPoint x="710" y="520" as="sourcePoint" />
          </mxGeometry>
        </mxCell>
        <mxCell id="NXc3dOM5y7SeG1pe1I8C-7" style="edgeStyle=orthogonalEdgeStyle;rounded=0;orthogonalLoop=1;jettySize=auto;html=1;exitX=0;exitY=0.5;exitDx=0;exitDy=0;endArrow=none;endFill=0;" edge="1" parent="1">
          <mxGeometry relative="1" as="geometry">
            <mxPoint x="650" y="429.75" as="targetPoint" />
            <mxPoint x="710" y="430" as="sourcePoint" />
          </mxGeometry>
        </mxCell>
        <mxCell id="NXc3dOM5y7SeG1pe1I8C-8" style="edgeStyle=orthogonalEdgeStyle;rounded=0;orthogonalLoop=1;jettySize=auto;html=1;exitX=0;exitY=0.5;exitDx=0;exitDy=0;endArrow=none;endFill=0;" edge="1" parent="1">
          <mxGeometry relative="1" as="geometry">
            <mxPoint x="650" y="339.75" as="targetPoint" />
            <mxPoint x="710" y="340" as="sourcePoint" />
          </mxGeometry>
        </mxCell>
        <mxCell id="NXc3dOM5y7SeG1pe1I8C-11" style="edgeStyle=orthogonalEdgeStyle;rounded=0;orthogonalLoop=1;jettySize=auto;html=1;exitX=0;exitY=0.5;exitDx=0;exitDy=0;endArrow=none;endFill=0;" edge="1" parent="1">
          <mxGeometry relative="1" as="geometry">
            <mxPoint x="990" y="1069.6315789473686" as="targetPoint" />
            <mxPoint x="1050" y="1070" as="sourcePoint" />
          </mxGeometry>
        </mxCell>
        <mxCell id="NXc3dOM5y7SeG1pe1I8C-12" style="edgeStyle=orthogonalEdgeStyle;rounded=0;orthogonalLoop=1;jettySize=auto;html=1;exitX=0;exitY=0.5;exitDx=0;exitDy=0;endArrow=none;endFill=0;" edge="1" parent="1">
          <mxGeometry relative="1" as="geometry">
            <mxPoint x="990" y="979.6315789473686" as="targetPoint" />
            <mxPoint x="1050" y="980" as="sourcePoint" />
          </mxGeometry>
        </mxCell>
        <mxCell id="NXc3dOM5y7SeG1pe1I8C-13" style="edgeStyle=orthogonalEdgeStyle;rounded=0;orthogonalLoop=1;jettySize=auto;html=1;exitX=0;exitY=0.5;exitDx=0;exitDy=0;endArrow=none;endFill=0;" edge="1" parent="1">
          <mxGeometry relative="1" as="geometry">
            <mxPoint x="990" y="889.6315789473686" as="targetPoint" />
            <mxPoint x="1050" y="890" as="sourcePoint" />
          </mxGeometry>
        </mxCell>
        <mxCell id="NXc3dOM5y7SeG1pe1I8C-14" style="edgeStyle=orthogonalEdgeStyle;rounded=0;orthogonalLoop=1;jettySize=auto;html=1;exitX=0;exitY=0.5;exitDx=0;exitDy=0;endArrow=none;endFill=0;" edge="1" parent="1">
          <mxGeometry relative="1" as="geometry">
            <mxPoint x="990" y="789.6315789473686" as="targetPoint" />
            <mxPoint x="1050" y="790" as="sourcePoint" />
          </mxGeometry>
        </mxCell>
        <mxCell id="NXc3dOM5y7SeG1pe1I8C-15" style="edgeStyle=orthogonalEdgeStyle;rounded=0;orthogonalLoop=1;jettySize=auto;html=1;exitX=0;exitY=0.5;exitDx=0;exitDy=0;endArrow=none;endFill=0;" edge="1" parent="1">
          <mxGeometry relative="1" as="geometry">
            <mxPoint x="990" y="699.6315789473686" as="targetPoint" />
            <mxPoint x="1050" y="700" as="sourcePoint" />
          </mxGeometry>
        </mxCell>
        <mxCell id="NXc3dOM5y7SeG1pe1I8C-16" style="edgeStyle=orthogonalEdgeStyle;rounded=0;orthogonalLoop=1;jettySize=auto;html=1;exitX=0;exitY=0.5;exitDx=0;exitDy=0;endArrow=none;endFill=0;" edge="1" parent="1">
          <mxGeometry relative="1" as="geometry">
            <mxPoint x="990" y="609.6315789473686" as="targetPoint" />
            <mxPoint x="1050" y="610" as="sourcePoint" />
          </mxGeometry>
        </mxCell>
        <mxCell id="NXc3dOM5y7SeG1pe1I8C-17" style="edgeStyle=orthogonalEdgeStyle;rounded=0;orthogonalLoop=1;jettySize=auto;html=1;exitX=0;exitY=0.5;exitDx=0;exitDy=0;endArrow=none;endFill=0;" edge="1" parent="1">
          <mxGeometry relative="1" as="geometry">
            <mxPoint x="990" y="519.6315789473686" as="targetPoint" />
            <mxPoint x="1050" y="520" as="sourcePoint" />
          </mxGeometry>
        </mxCell>
        <mxCell id="NXc3dOM5y7SeG1pe1I8C-20" style="edgeStyle=orthogonalEdgeStyle;rounded=0;orthogonalLoop=1;jettySize=auto;html=1;exitX=0;exitY=0.5;exitDx=0;exitDy=0;endArrow=none;endFill=0;" edge="1" parent="1">
          <mxGeometry relative="1" as="geometry">
            <mxPoint x="990" y="429.63157894736855" as="targetPoint" />
            <mxPoint x="1050" y="430" as="sourcePoint" />
          </mxGeometry>
        </mxCell>
        <mxCell id="NXc3dOM5y7SeG1pe1I8C-21" style="edgeStyle=orthogonalEdgeStyle;rounded=0;orthogonalLoop=1;jettySize=auto;html=1;exitX=0;exitY=0.5;exitDx=0;exitDy=0;endArrow=none;endFill=0;" edge="1" parent="1">
          <mxGeometry relative="1" as="geometry">
            <mxPoint x="990" y="339.63157894736855" as="targetPoint" />
            <mxPoint x="1050" y="340" as="sourcePoint" />
          </mxGeometry>
        </mxCell>
        <mxCell id="NXc3dOM5y7SeG1pe1I8C-26" style="edgeStyle=orthogonalEdgeStyle;rounded=0;orthogonalLoop=1;jettySize=auto;html=1;exitX=0;exitY=0.5;exitDx=0;exitDy=0;endArrow=none;endFill=0;" edge="1" parent="1">
          <mxGeometry relative="1" as="geometry">
            <mxPoint x="1330" y="793.8947368421054" as="targetPoint" />
            <mxPoint x="1390" y="794" as="sourcePoint" />
          </mxGeometry>
        </mxCell>
        <mxCell id="NXc3dOM5y7SeG1pe1I8C-27" style="edgeStyle=orthogonalEdgeStyle;rounded=0;orthogonalLoop=1;jettySize=auto;html=1;exitX=0;exitY=0.5;exitDx=0;exitDy=0;endArrow=none;endFill=0;" edge="1" parent="1">
          <mxGeometry relative="1" as="geometry">
            <mxPoint x="1330" y="702.8947368421054" as="targetPoint" />
            <mxPoint x="1390" y="703" as="sourcePoint" />
          </mxGeometry>
        </mxCell>
        <mxCell id="NXc3dOM5y7SeG1pe1I8C-28" style="edgeStyle=orthogonalEdgeStyle;rounded=0;orthogonalLoop=1;jettySize=auto;html=1;exitX=0;exitY=0.5;exitDx=0;exitDy=0;endArrow=none;endFill=0;" edge="1" parent="1">
          <mxGeometry relative="1" as="geometry">
            <mxPoint x="1330" y="612.8947368421054" as="targetPoint" />
            <mxPoint x="1390" y="613" as="sourcePoint" />
          </mxGeometry>
        </mxCell>
        <mxCell id="NXc3dOM5y7SeG1pe1I8C-29" style="edgeStyle=orthogonalEdgeStyle;rounded=0;orthogonalLoop=1;jettySize=auto;html=1;exitX=0;exitY=0.5;exitDx=0;exitDy=0;endArrow=none;endFill=0;" edge="1" parent="1">
          <mxGeometry relative="1" as="geometry">
            <mxPoint x="1330" y="522.8947368421054" as="targetPoint" />
            <mxPoint x="1390" y="523" as="sourcePoint" />
          </mxGeometry>
        </mxCell>
        <mxCell id="NXc3dOM5y7SeG1pe1I8C-30" style="edgeStyle=orthogonalEdgeStyle;rounded=0;orthogonalLoop=1;jettySize=auto;html=1;exitX=0;exitY=0.5;exitDx=0;exitDy=0;endArrow=none;endFill=0;" edge="1" parent="1">
          <mxGeometry relative="1" as="geometry">
            <mxPoint x="1330" y="432.89473684210543" as="targetPoint" />
            <mxPoint x="1390" y="433" as="sourcePoint" />
          </mxGeometry>
        </mxCell>
        <mxCell id="NXc3dOM5y7SeG1pe1I8C-31" style="edgeStyle=orthogonalEdgeStyle;rounded=0;orthogonalLoop=1;jettySize=auto;html=1;exitX=0;exitY=0.5;exitDx=0;exitDy=0;endArrow=none;endFill=0;" edge="1" parent="1">
          <mxGeometry relative="1" as="geometry">
            <mxPoint x="1330" y="342.89473684210543" as="targetPoint" />
            <mxPoint x="1390" y="343" as="sourcePoint" />
          </mxGeometry>
        </mxCell>
        <mxCell id="NXc3dOM5y7SeG1pe1I8C-33" style="edgeStyle=orthogonalEdgeStyle;rounded=0;orthogonalLoop=1;jettySize=auto;html=1;exitX=0.5;exitY=0.5;exitDx=0;exitDy=0;exitPerimeter=0;entryX=0.5;entryY=0;entryDx=0;entryDy=0;endArrow=none;endFill=0;" edge="1" parent="1" target="SM1oqchBrChm5BAiPCP6-15">
          <mxGeometry relative="1" as="geometry">
            <mxPoint x="185" y="150" as="sourcePoint" />
            <mxPoint x="1800" y="160" as="targetPoint" />
            <Array as="points">
              <mxPoint x="1800" y="150" />
            </Array>
          </mxGeometry>
        </mxCell>
        <mxCell id="NXc3dOM5y7SeG1pe1I8C-36" value="" style="endArrow=none;html=1;rounded=0;exitX=0.5;exitY=0;exitDx=0;exitDy=0;" edge="1" parent="1" source="SM1oqchBrChm5BAiPCP6-51">
          <mxGeometry width="50" height="50" relative="1" as="geometry">
            <mxPoint x="1470" y="180" as="sourcePoint" />
            <mxPoint x="1480" y="150" as="targetPoint" />
          </mxGeometry>
        </mxCell>
        <mxCell id="NXc3dOM5y7SeG1pe1I8C-37" value="" style="endArrow=none;html=1;rounded=0;exitX=0.5;exitY=0;exitDx=0;exitDy=0;" edge="1" parent="1">
          <mxGeometry width="50" height="50" relative="1" as="geometry">
            <mxPoint x="1140" y="180" as="sourcePoint" />
            <mxPoint x="1140" y="150" as="targetPoint" />
          </mxGeometry>
        </mxCell>
        <mxCell id="NXc3dOM5y7SeG1pe1I8C-38" value="" style="endArrow=none;html=1;rounded=0;exitX=0.5;exitY=0;exitDx=0;exitDy=0;" edge="1" parent="1">
          <mxGeometry width="50" height="50" relative="1" as="geometry">
            <mxPoint x="800" y="180" as="sourcePoint" />
            <mxPoint x="800" y="150" as="targetPoint" />
          </mxGeometry>
        </mxCell>
        <mxCell id="NXc3dOM5y7SeG1pe1I8C-39" value="" style="endArrow=none;html=1;rounded=0;exitX=0.5;exitY=0;exitDx=0;exitDy=0;" edge="1" parent="1">
          <mxGeometry width="50" height="50" relative="1" as="geometry">
            <mxPoint x="450" y="180" as="sourcePoint" />
            <mxPoint x="450" y="150" as="targetPoint" />
          </mxGeometry>
        </mxCell>
      </root>
    </mxGraphModel>
  </diagram>
</mxfile>
